# xmcd CD database file
# Copyright (C) 1996 Ti Kan
#
# Track frame offsets:
#	183
#	2305
#	12443
#	20185
#	33023
#	40538
#	55730
#	68118
#	84035
#	136218
#	166200
#	175348
#	187123
#	201090
#	214938
#
# Disc length: 3063 seconds
#
# Revision: 1
# Processed by: cddbd v1.4b41PL1 Copyright (c) Steve Scherf et al.
# Submitted via: EasyCD 2.21 - (C) 1996 Greg Leichner
#
DISCID=b90bf50f
DTITLE=Billie Holiday - Hillie's Blues
DYEAR=1900
DGENRE=
TTITLE0=Announcement by Leonard Feather
TTITLE1=Blue moon
TTITLE2=All of me
TTITLE3=My man
TTITLE4=Them their eyes
TTITLE5=I cried for you
TTITLE6=What a little moonlight can do
TTITLE7=I cover the waterfront
TTITLE8=Billie's blues
TTITLE9=Lover come back to me
TTITLE10=Blue turning grey over you
TTITLE11=Be fair with me baby
TTITLE12=Rocky mountain blues
TTITLE13=Detour ahead
TTITLE14=Trav'lin' light
EXTD=
EXTT0=
EXTT1=
EXTT2=
EXTT3=
EXTT4=
EXTT5=
EXTT6=
EXTT7=
EXTT8=
EXTT9=
EXTT10=
EXTT11=
EXTT12=
EXTT13=
EXTT14=
PLAYORDER=
